<?xml version="1.0" encoding="UTF-8" standalone="no"?>
<!-- Created with Inkscape (http://www.inkscape.org/) -->

<svg
   xmlns:dc="http://purl.org/dc/elements/1.1/"
   xmlns:cc="http://creativecommons.org/ns#"
   xmlns:rdf="http://www.w3.org/1999/02/22-rdf-syntax-ns#"
   xmlns:svg="http://www.w3.org/2000/svg"
   xmlns="http://www.w3.org/2000/svg"
   xmlns:sodipodi="http://sodipodi.sourceforge.net/DTD/sodipodi-0.dtd"
   xmlns:inkscape="http://www.inkscape.org/namespaces/inkscape"
   width="744.09448819"
   height="1052.3622047"
   id="svg3697"
   version="1.1"
   inkscape:version="0.48.4 r9939"
   sodipodi:docname="robot8.svg">
  <defs
     id="defs3699">
    <clipPath
       clipPathUnits="userSpaceOnUse"
       id="clipPath132">
      <path
         inkscape:connector-curvature="0"
         d="M 0,800 800,800 800,0 0,0 0,800 z"
         id="path134" />
    </clipPath>
    <clipPath
       clipPathUnits="userSpaceOnUse"
       id="clipPath184">
      <path
         inkscape:connector-curvature="0"
         d="M 0,800 800,800 800,0 0,0 0,800 z"
         id="path186" />
    </clipPath>
    <clipPath
       clipPathUnits="userSpaceOnUse"
       id="clipPath254">
      <path
         inkscape:connector-curvature="0"
         d="M 0,800 800,800 800,0 0,0 0,800 z"
         id="path256" />
    </clipPath>
    <clipPath
       clipPathUnits="userSpaceOnUse"
       id="clipPath254-3">
      <path
         inkscape:connector-curvature="0"
         d="M 0,800 800,800 800,0 0,0 0,800 z"
         id="path256-6" />
    </clipPath>
    <clipPath
       clipPathUnits="userSpaceOnUse"
       id="clipPath304">
      <path
         inkscape:connector-curvature="0"
         d="M 0,800 800,800 800,0 0,0 0,800 z"
         id="path306" />
    </clipPath>
    <clipPath
       clipPathUnits="userSpaceOnUse"
       id="clipPath364">
      <path
         inkscape:connector-curvature="0"
         d="M 0,800 800,800 800,0 0,0 0,800 z"
         id="path366" />
    </clipPath>
    <clipPath
       clipPathUnits="userSpaceOnUse"
       id="clipPath426">
      <path
         inkscape:connector-curvature="0"
         d="M 0,800 800,800 800,0 0,0 0,800 z"
         id="path428" />
    </clipPath>
    <clipPath
       clipPathUnits="userSpaceOnUse"
       id="clipPath490">
      <path
         inkscape:connector-curvature="0"
         d="M 0,800 800,800 800,0 0,0 0,800 z"
         id="path492" />
    </clipPath>
    <clipPath
       clipPathUnits="userSpaceOnUse"
       id="clipPath562">
      <path
         inkscape:connector-curvature="0"
         d="M 0,800 800,800 800,0 0,0 0,800 z"
         id="path564" />
    </clipPath>
    <clipPath
       clipPathUnits="userSpaceOnUse"
       id="clipPath650">
      <path
         inkscape:connector-curvature="0"
         d="M 0,800 800,800 800,0 0,0 0,800 z"
         id="path652" />
    </clipPath>
  </defs>
  <sodipodi:namedview
     id="base"
     pagecolor="#ffffff"
     bordercolor="#666666"
     borderopacity="1.0"
     inkscape:pageopacity="0.0"
     inkscape:pageshadow="2"
     inkscape:zoom="0.35"
     inkscape:cx="375"
     inkscape:cy="520"
     inkscape:document-units="px"
     inkscape:current-layer="layer1"
     showgrid="false"
     inkscape:window-width="1535"
     inkscape:window-height="876"
     inkscape:window-x="65"
     inkscape:window-y="24"
     inkscape:window-maximized="1" />
  <metadata
     id="metadata3702">
    <rdf:RDF>
      <cc:Work
         rdf:about="">
        <dc:format>image/svg+xml</dc:format>
        <dc:type
           rdf:resource="http://purl.org/dc/dcmitype/StillImage" />
        <dc:title></dc:title>
      </cc:Work>
    </rdf:RDF>
  </metadata>
  <g
     inkscape:label="Layer 1"
     inkscape:groupmode="layer"
     id="layer1">
    <g
       id="g638"
       transform="matrix(1.25,0,0,-1.25,427.5221,579.23491)">
      <path
         inkscape:connector-curvature="0"
         d="m 0,0 0,3.699 1.232,0 0,53.004 11.172,0 0,-53.004 1.232,0 0,-3.699 0.155,0 1.745,0 0,-10.169 -4.661,0 0,5.086 -8.448,0 0,-5.086 -4.661,0 L -2.234,0 0,0 z"
         style="fill:#414042;fill-opacity:1;fill-rule:nonzero;stroke:none"
         id="path640" />
    </g>
    <g
       id="g642"
       transform="matrix(1.25,0,0,-1.25,303.90522,579.23491)">
      <path
         inkscape:connector-curvature="0"
         d="m 0,0 0,3.699 -1.233,0 0,53.004 -11.17,0 0,-53.004 -1.232,0 0,-3.699 -0.155,0 -1.745,0 0,-10.169 4.662,0 0,5.086 8.447,0 0,-5.086 4.662,0 L 2.236,0 0,0 z"
         style="fill:#414042;fill-opacity:1;fill-rule:nonzero;stroke:none"
         id="path644" />
    </g>
    <g
       transform="matrix(1.25,0,0,-1.25,-408.8414,756.87041)"
       id="g646">
      <g
         id="g648"
         clip-path="url(#clipPath650)">
        <g
           id="g654"
           transform="translate(636.9297,87.1055)">
          <path
             inkscape:connector-curvature="0"
             d="m 0,0 32.401,0 c 0,5.708 -3.546,10.651 -8.73,13.12 l 0,26.077 c 0,2.338 -1.196,4.394 -3.008,5.599 -0.986,0.701 -2.184,1.122 -3.485,1.122 l -34.463,0 -34.463,0 c -1.301,0 -2.5,-0.421 -3.483,-1.122 -1.814,-1.205 -3.011,-3.261 -3.011,-5.599 l 0,-26.077 C -63.426,10.651 -66.971,5.708 -66.971,0 l 32.401,0 c 0,6.243 -4.239,11.569 -10.227,13.743 l 0,20.125 27.512,0 27.511,0 0,-20.125 C 4.239,11.569 0,6.243 0,0"
             style="fill:#414042;fill-opacity:1;fill-rule:nonzero;stroke:none"
             id="path656" />
        </g>
        <g
           id="g658"
           transform="translate(619.9902,262.9648)">
          <path
             inkscape:connector-curvature="0"
             d="M 0,0 C -0.117,0 -0.229,-0.016 -0.346,-0.017 -0.462,-0.016 -0.574,0 -0.692,0 -17.43,0 -30.999,-13.566 -30.999,-30.306 l 30.653,0 30.654,0 C 30.308,-13.566 16.737,0 0,0"
             style="fill:#414042;fill-opacity:1;fill-rule:nonzero;stroke:none"
             id="path660" />
        </g>
        <g
           id="g662"
           transform="translate(631.8037,246.8838)">
          <path
             inkscape:connector-curvature="0"
             d="m 0,0 c 0,-6.274 -5.088,-11.364 -11.363,-11.364 -6.274,0 -11.364,5.09 -11.364,11.364 0,6.275 5.09,11.365 11.364,11.365 C -5.088,11.365 0,6.275 0,0"
             style="fill:#ffffff;fill-opacity:1;fill-rule:nonzero;stroke:none"
             id="path664" />
        </g>
        <g
           id="g666"
           transform="translate(626.3848,246.8838)">
          <path
             inkscape:connector-curvature="0"
             d="m 0,0 c 0,-3.282 -2.661,-5.943 -5.944,-5.943 -3.284,0 -5.946,2.661 -5.946,5.943 0,3.283 2.662,5.943 5.946,5.943 C -2.661,5.943 0,3.283 0,0"
             style="fill:#414042;fill-opacity:1;fill-rule:nonzero;stroke:none"
             id="path668" />
        </g>
        <g
           id="g670"
           transform="translate(620.4404,250.6953)">
          <path
             inkscape:connector-curvature="0"
             d="m 0,0 c 0,-1.975 -1.599,-3.573 -3.571,-3.573 -1.971,0 -3.572,1.598 -3.572,3.573 0,1.971 1.601,3.571 3.572,3.571 C -1.599,3.571 0,1.971 0,0"
             style="fill:#ffffff;fill-opacity:1;fill-rule:nonzero;stroke:none"
             id="path672" />
        </g>
        <g
           id="g674"
           transform="translate(650.4648,228.7354)">
          <path
             inkscape:connector-curvature="0"
             d="m 0,0 -30.82,0 -30.821,0 c -18.535,-5.945 -31.05,-17.239 -31.05,-30.198 0,-19.141 27.312,-34.656 61.002,-34.656 0.292,0 0.579,0.009 0.869,0.012 0.29,-0.003 0.577,-0.012 0.87,-0.012 33.688,0 61.001,15.515 61.001,34.656 C 31.051,-17.239 18.535,-5.945 0,0"
             style="fill:#414042;fill-opacity:1;fill-rule:nonzero;stroke:none"
             id="path676" />
        </g>
        <g
           id="g678"
           transform="translate(635.9336,177.8145)">
          <path
             inkscape:connector-curvature="0"
             d="m 0,0 -16.289,0 -16.289,0 c -10.266,-2.768 -17.197,-8.022 -17.197,-14.053 0,-8.856 14.965,-16.044 33.486,-16.121 18.519,0.077 33.486,7.265 33.486,16.121 C 17.197,-8.022 10.266,-2.768 0,0"
             style="fill:#414042;fill-opacity:1;fill-rule:nonzero;stroke:none"
             id="path680" />
        </g>
        <g
           id="g682"
           transform="translate(619.6445,150.5752)">
          <path
             inkscape:connector-curvature="0"
             d="m 0,0 c -12.086,-0.138 -21.785,-4.205 -21.785,-9.216 0,-5.012 9.699,-9.079 21.785,-9.217 12.085,0.138 21.785,4.205 21.785,9.217 0,5.011 -9.7,9.078 -21.785,9.216"
             style="fill:#414042;fill-opacity:1;fill-rule:nonzero;stroke:none"
             id="path684" />
        </g>
      </g>
    </g>
  </g>
</svg>
