<?xml version="1.0" encoding="UTF-8" standalone="no"?>
<!-- Created with Inkscape (http://www.inkscape.org/) -->

<svg
   xmlns:dc="http://purl.org/dc/elements/1.1/"
   xmlns:cc="http://creativecommons.org/ns#"
   xmlns:rdf="http://www.w3.org/1999/02/22-rdf-syntax-ns#"
   xmlns:svg="http://www.w3.org/2000/svg"
   xmlns="http://www.w3.org/2000/svg"
   xmlns:sodipodi="http://sodipodi.sourceforge.net/DTD/sodipodi-0.dtd"
   xmlns:inkscape="http://www.inkscape.org/namespaces/inkscape"
   width="744.09448819"
   height="1052.3622047"
   id="svg3697"
   version="1.1"
   inkscape:version="0.48.4 r9939"
   sodipodi:docname="robot3.svg">
  <defs
     id="defs3699">
    <clipPath
       clipPathUnits="userSpaceOnUse"
       id="clipPath132">
      <path
         inkscape:connector-curvature="0"
         d="M 0,800 800,800 800,0 0,0 0,800 z"
         id="path134" />
    </clipPath>
    <clipPath
       clipPathUnits="userSpaceOnUse"
       id="clipPath184">
      <path
         inkscape:connector-curvature="0"
         d="M 0,800 800,800 800,0 0,0 0,800 z"
         id="path186" />
    </clipPath>
    <clipPath
       clipPathUnits="userSpaceOnUse"
       id="clipPath254">
      <path
         inkscape:connector-curvature="0"
         d="M 0,800 800,800 800,0 0,0 0,800 z"
         id="path256" />
    </clipPath>
    <clipPath
       clipPathUnits="userSpaceOnUse"
       id="clipPath254-3">
      <path
         inkscape:connector-curvature="0"
         d="M 0,800 800,800 800,0 0,0 0,800 z"
         id="path256-6" />
    </clipPath>
  </defs>
  <sodipodi:namedview
     id="base"
     pagecolor="#ffffff"
     bordercolor="#666666"
     borderopacity="1.0"
     inkscape:pageopacity="0.0"
     inkscape:pageshadow="2"
     inkscape:zoom="0.35"
     inkscape:cx="375"
     inkscape:cy="520"
     inkscape:document-units="px"
     inkscape:current-layer="layer1"
     showgrid="false"
     inkscape:window-width="1535"
     inkscape:window-height="876"
     inkscape:window-x="65"
     inkscape:window-y="24"
     inkscape:window-maximized="1" />
  <metadata
     id="metadata3702">
    <rdf:RDF>
      <cc:Work
         rdf:about="">
        <dc:format>image/svg+xml</dc:format>
        <dc:type
           rdf:resource="http://purl.org/dc/dcmitype/StillImage" />
        <dc:title></dc:title>
      </cc:Work>
    </rdf:RDF>
  </metadata>
  <g
     inkscape:label="Layer 1"
     inkscape:groupmode="layer"
     id="layer1">
    <path
       inkscape:connector-curvature="0"
       d="m 378.36857,639.05663 -25.65125,0 0,-31.92 25.65125,0 0,31.92 z"
       style="fill:#414042;fill-opacity:1;fill-rule:nonzero;stroke:none"
       id="path244" />
    <g
       id="g246"
       transform="matrix(1.25,0,0,-1.25,387.48894,527.33138)">
      <path
         inkscape:connector-curvature="0"
         d="m 0,0 -0.098,0 -17.004,0 0,-11.629 17.004,0 0.098,0 17.004,0 L 17.004,0 0,0 z"
         style="fill:#414042;fill-opacity:1;fill-rule:nonzero;stroke:none"
         id="path248" />
    </g>
    <g
       transform="matrix(1.25,0,0,-1.25,-377.23393,1316.0966)"
       id="g250">
      <g
         id="g252"
         clip-path="url(#clipPath254-3)">
        <g
           id="g258"
           transform="translate(639.042,620.0679)">
          <path
             inkscape:connector-curvature="0"
             d="m 0,0 -27.264,0 -0.097,0 -27.265,0 c -14.733,0 -26.676,-11.944 -26.676,-26.678 0,-14.734 11.943,-26.677 26.676,-26.677 l 27.265,0 0.097,0 27.264,0 c 14.733,0 26.678,11.943 26.678,26.677 C 26.678,-11.944 14.733,0 0,0"
             style="fill:#414042;fill-opacity:1;fill-rule:nonzero;stroke:none"
             id="path260" />
        </g>
        <path
           inkscape:connector-curvature="0"
           d="m 618.977,541.632 20.521,0 0,25.536 -20.521,0 0,-25.536 z"
           style="fill:#414042;fill-opacity:1;fill-rule:nonzero;stroke:none"
           id="path262" />
        <g
           id="g264"
           transform="translate(649.2139,681.7769)">
          <path
             inkscape:connector-curvature="0"
             d="M 0,0 C -2.27,4.664 -5.393,8.827 -9.144,12.324 L 5.064,52.998 c 0.873,2.496 -0.444,5.227 -2.941,6.1 -2.495,0.87 -5.226,-0.446 -6.099,-2.942 L -17.223,18.235 c -5.984,3.356 -12.872,5.289 -20.213,5.325 l 0,0.003 c -0.015,0 -0.032,-10e-4 -0.048,-10e-4 -0.017,0 -0.033,10e-4 -0.049,10e-4 l 0,-0.003 c -7.341,-0.036 -14.228,-1.969 -20.212,-5.325 l -13.248,37.921 c -0.873,2.496 -3.604,3.812 -6.1,2.942 -2.496,-0.873 -3.813,-3.604 -2.94,-6.1 L -65.825,12.324 C -69.575,8.827 -72.7,4.664 -74.968,0 -83.841,-0.818 -90.79,-8.275 -90.79,-17.361 c 0,-8.781 6.493,-16.025 14.936,-17.243 6.336,-14.93 21.099,-25.415 38.321,-25.5 l 0,-0.005 c 0.016,0 0.032,0.002 0.049,0.002 0.016,0 0.033,-0.002 0.048,-0.002 l 0,0.005 c 17.222,0.085 31.984,10.57 38.322,25.5 8.441,1.218 14.935,8.462 14.935,17.243 C 15.821,-8.275 8.871,-0.818 0,0"
             style="fill:#414042;fill-opacity:1;fill-rule:nonzero;stroke:none"
             id="path266" />
        </g>
        <g
           id="g268"
           transform="translate(650.2881,603.6938)">
          <path
             inkscape:connector-curvature="0"
             d="m 0,0 c 0.448,0.7 0.717,1.525 0.717,2.417 0,2.482 -2.014,4.492 -4.492,4.492 -0.894,0 -1.718,-0.268 -2.418,-0.714 L 0,0 z"
             style="fill:#ffffff;fill-opacity:1;fill-rule:nonzero;stroke:none"
             id="path270" />
        </g>
        <g
           id="g272"
           transform="translate(642.7344,608.5278)">
          <path
             inkscape:connector-curvature="0"
             d="m 0,0 c -0.447,-0.699 -0.715,-1.526 -0.715,-2.417 0,-2.482 2.011,-4.493 4.493,-4.493 0.892,0 1.717,0.269 2.415,0.714 L 0,0 z"
             style="fill:#ffffff;fill-opacity:1;fill-rule:nonzero;stroke:none"
             id="path274" />
        </g>
        <g
           id="g276"
           transform="translate(650.2881,591.7808)">
          <path
             inkscape:connector-curvature="0"
             d="m 0,0 c 0.448,0.7 0.717,1.525 0.717,2.417 0,2.482 -2.014,4.492 -4.492,4.492 -0.894,0 -1.718,-0.267 -2.418,-0.714 L 0,0 z"
             style="fill:#ffffff;fill-opacity:1;fill-rule:nonzero;stroke:none"
             id="path278" />
        </g>
        <g
           id="g280"
           transform="translate(642.7344,596.6147)">
          <path
             inkscape:connector-curvature="0"
             d="m 0,0 c -0.447,-0.699 -0.715,-1.526 -0.715,-2.417 0,-2.482 2.011,-4.492 4.493,-4.492 0.892,0 1.717,0.268 2.415,0.714 L 0,0 z"
             style="fill:#ffffff;fill-opacity:1;fill-rule:nonzero;stroke:none"
             id="path282" />
        </g>
        <g
           id="g284"
           transform="translate(650.2881,579.1948)">
          <path
             inkscape:connector-curvature="0"
             d="m 0,0 c 0.448,0.7 0.717,1.526 0.717,2.417 0,2.482 -2.014,4.492 -4.492,4.492 -0.894,0 -1.718,-0.267 -2.418,-0.714 L 0,0 z"
             style="fill:#ffffff;fill-opacity:1;fill-rule:nonzero;stroke:none"
             id="path286" />
        </g>
        <g
           id="g288"
           transform="translate(642.7344,584.0288)">
          <path
             inkscape:connector-curvature="0"
             d="m 0,0 c -0.447,-0.699 -0.715,-1.526 -0.715,-2.417 0,-2.482 2.011,-4.492 4.493,-4.492 0.892,0 1.717,0.268 2.415,0.714 L 0,0 z"
             style="fill:#ffffff;fill-opacity:1;fill-rule:nonzero;stroke:none"
             id="path290" />
        </g>
        <g
           id="g292"
           transform="translate(611.7295,637.7476)">
          <path
             inkscape:connector-curvature="0"
             d="M 0,0 C -14.132,0.089 -25.603,11.604 -25.603,25.757 -25.603,39.91 -14.132,51.425 0,51.513 14.131,51.425 25.602,39.91 25.602,25.757 25.602,11.604 14.131,0.089 0,0 m 30.391,25.757 c 0,16.776 -13.593,30.433 -30.342,30.548 l 0,0.003 c -0.016,0 -0.032,-0.002 -0.049,-0.002 -0.017,0 -0.032,0.002 -0.049,0.002 l 0,-0.003 c -16.75,-0.115 -30.342,-13.772 -30.342,-30.548 0,-16.777 13.592,-30.433 30.342,-30.549 l 0,-0.002 c 0.017,0 0.032,0.002 0.049,0.002 0.017,0 0.033,-0.002 0.049,-0.002 l 0,0.002 C 16.798,-4.676 30.391,8.98 30.391,25.757"
             style="fill:#fefefe;fill-opacity:1;fill-rule:nonzero;stroke:none"
             id="path294" />
        </g>
        <g
           id="g296"
           transform="translate(611.7783,682.0752)">
          <path
             inkscape:connector-curvature="0"
             d="m 0,0 0,0.005 c -0.016,0 -0.032,-0.003 -0.049,-0.003 -0.016,0 -0.032,0.003 -0.049,0.003 l 0,-0.005 c -10.164,-0.114 -18.371,-8.379 -18.371,-18.57 0,-10.193 8.207,-18.457 18.371,-18.572 l 0,-0.005 c 0.017,0 0.033,0.002 0.049,0.002 0.017,0 0.033,-0.002 0.049,-0.002 l 0,0.005 c 10.164,0.115 18.371,8.379 18.371,18.572 C 18.371,-8.379 10.164,-0.114 0,0"
             style="fill:#fefefe;fill-opacity:1;fill-rule:nonzero;stroke:none"
             id="path298" />
        </g>
      </g>
    </g>
  </g>
</svg>
