<?xml version="1.0" encoding="UTF-8" standalone="no"?>
<!-- Created with Inkscape (http://www.inkscape.org/) -->

<svg
   xmlns:dc="http://purl.org/dc/elements/1.1/"
   xmlns:cc="http://creativecommons.org/ns#"
   xmlns:rdf="http://www.w3.org/1999/02/22-rdf-syntax-ns#"
   xmlns:svg="http://www.w3.org/2000/svg"
   xmlns="http://www.w3.org/2000/svg"
   xmlns:sodipodi="http://sodipodi.sourceforge.net/DTD/sodipodi-0.dtd"
   xmlns:inkscape="http://www.inkscape.org/namespaces/inkscape"
   width="744.09448819"
   height="1052.3622047"
   id="svg3697"
   version="1.1"
   inkscape:version="0.48.4 r9939"
   sodipodi:docname="robot6.svg">
  <defs
     id="defs3699">
    <clipPath
       clipPathUnits="userSpaceOnUse"
       id="clipPath132">
      <path
         inkscape:connector-curvature="0"
         d="M 0,800 800,800 800,0 0,0 0,800 z"
         id="path134" />
    </clipPath>
    <clipPath
       clipPathUnits="userSpaceOnUse"
       id="clipPath184">
      <path
         inkscape:connector-curvature="0"
         d="M 0,800 800,800 800,0 0,0 0,800 z"
         id="path186" />
    </clipPath>
    <clipPath
       clipPathUnits="userSpaceOnUse"
       id="clipPath254">
      <path
         inkscape:connector-curvature="0"
         d="M 0,800 800,800 800,0 0,0 0,800 z"
         id="path256" />
    </clipPath>
    <clipPath
       clipPathUnits="userSpaceOnUse"
       id="clipPath254-3">
      <path
         inkscape:connector-curvature="0"
         d="M 0,800 800,800 800,0 0,0 0,800 z"
         id="path256-6" />
    </clipPath>
    <clipPath
       clipPathUnits="userSpaceOnUse"
       id="clipPath304">
      <path
         inkscape:connector-curvature="0"
         d="M 0,800 800,800 800,0 0,0 0,800 z"
         id="path306" />
    </clipPath>
    <clipPath
       clipPathUnits="userSpaceOnUse"
       id="clipPath364">
      <path
         inkscape:connector-curvature="0"
         d="M 0,800 800,800 800,0 0,0 0,800 z"
         id="path366" />
    </clipPath>
    <clipPath
       clipPathUnits="userSpaceOnUse"
       id="clipPath426">
      <path
         inkscape:connector-curvature="0"
         d="M 0,800 800,800 800,0 0,0 0,800 z"
         id="path428" />
    </clipPath>
    <clipPath
       clipPathUnits="userSpaceOnUse"
       id="clipPath490">
      <path
         inkscape:connector-curvature="0"
         d="M 0,800 800,800 800,0 0,0 0,800 z"
         id="path492" />
    </clipPath>
  </defs>
  <sodipodi:namedview
     id="base"
     pagecolor="#ffffff"
     bordercolor="#666666"
     borderopacity="1.0"
     inkscape:pageopacity="0.0"
     inkscape:pageshadow="2"
     inkscape:zoom="0.35"
     inkscape:cx="375"
     inkscape:cy="520"
     inkscape:document-units="px"
     inkscape:current-layer="layer1"
     showgrid="false"
     inkscape:window-width="1535"
     inkscape:window-height="876"
     inkscape:window-x="65"
     inkscape:window-y="24"
     inkscape:window-maximized="1" />
  <metadata
     id="metadata3702">
    <rdf:RDF>
      <cc:Work
         rdf:about="">
        <dc:format>image/svg+xml</dc:format>
        <dc:type
           rdf:resource="http://purl.org/dc/dcmitype/StillImage" />
        <dc:title></dc:title>
      </cc:Work>
    </rdf:RDF>
  </metadata>
  <g
     inkscape:label="Layer 1"
     inkscape:groupmode="layer"
     id="layer1">
    <g
       transform="matrix(1.25,0,0,-1.25,160.78743,735.21466)"
       id="g486">
      <g
         id="g488"
         clip-path="url(#clipPath490)">
        <g
           id="g494"
           transform="translate(139.502,124.9063)">
          <path
             inkscape:connector-curvature="0"
             d="m 0,0 c 0,2.794 1.416,5.302 3.662,7.059 l 0,13.544 14.284,0 0,-12.785 C 20.824,6.073 22.708,3.227 22.708,0 c 0,-3.223 -1.884,-6.072 -4.762,-7.816 l 0,-20.84 -14.284,0 0,21.599 C 1.416,-5.301 0,-2.792 0,0"
             style="fill:#414042;fill-opacity:1;fill-rule:nonzero;stroke:none"
             id="path496" />
        </g>
        <g
           id="g498"
           transform="translate(135.168,86.9395)">
          <path
             inkscape:connector-curvature="0"
             d="m 0,0 30.276,0 c 0,8.361 -6.777,15.139 -15.137,15.139 C 6.777,15.139 0,8.361 0,0"
             style="fill:#414042;fill-opacity:1;fill-rule:nonzero;stroke:none"
             id="path500" />
        </g>
        <g
           id="g502"
           transform="translate(114.5703,197.0527)">
          <path
             inkscape:connector-curvature="0"
             d="M 0,0 C 3.538,3.939 7.903,5.976 13.348,6.224 L 12.693,20.486 C 3.349,20.06 -4.505,16.367 -10.648,9.512 -24.241,-5.654 -24.891,-32.332 -24.72,-40.941 c -7.431,-2.316 -12.792,-8.663 -12.792,-16.13 0,-0.143 0.022,-0.28 0.027,-0.421 l 10.09,0 c -0.011,0.141 -0.039,0.278 -0.039,0.421 0,3.859 3.987,6.997 8.888,6.997 4.902,0 8.889,-3.138 8.889,-6.997 0,-0.143 -0.028,-0.28 -0.04,-0.421 l 10.093,0 c 0.003,0.141 0.026,0.278 0.026,0.421 0,6.795 -4.443,12.659 -10.841,15.405 C -10.778,-32.709 -9.575,-10.661 0,0"
             style="fill:#414042;fill-opacity:1;fill-rule:nonzero;stroke:none"
             id="path504" />
        </g>
        <g
           id="g506"
           transform="translate(205.752,124.9063)">
          <path
             inkscape:connector-curvature="0"
             d="m 0,0 c 0,2.794 -1.416,5.302 -3.662,7.059 l 0,13.544 -14.284,0 0,-12.785 C -20.825,6.073 -22.708,3.227 -22.708,0 c 0,-3.223 1.883,-6.072 4.762,-7.816 l 0,-20.84 14.284,0 0,21.599 C -1.416,-5.301 0,-2.792 0,0"
             style="fill:#414042;fill-opacity:1;fill-rule:nonzero;stroke:none"
             id="path508" />
        </g>
        <g
           id="g510"
           transform="translate(210.0859,86.9395)">
          <path
             inkscape:connector-curvature="0"
             d="m 0,0 -30.277,0 c 0,8.361 6.778,15.139 15.138,15.139 C -6.777,15.139 0,8.361 0,0"
             style="fill:#414042;fill-opacity:1;fill-rule:nonzero;stroke:none"
             id="path512" />
        </g>
        <g
           id="g514"
           transform="translate(230.6831,197.0527)">
          <path
             inkscape:connector-curvature="0"
             d="m 0,0 c -3.538,3.939 -7.902,5.976 -13.347,6.224 l 0.654,14.262 C -3.348,20.06 4.505,16.367 10.648,9.512 24.242,-5.654 24.89,-32.332 24.72,-40.941 c 7.432,-2.316 12.793,-8.663 12.793,-16.13 0,-0.143 -0.023,-0.28 -0.027,-0.421 l -10.091,0 c 0.011,0.141 0.039,0.278 0.039,0.421 0,3.859 -3.987,6.997 -8.889,6.997 -4.901,0 -8.888,-3.138 -8.888,-6.997 0,-0.143 0.028,-0.28 0.04,-0.421 l -10.093,0 c -0.003,0.141 -0.025,0.278 -0.025,0.421 0,6.795 4.442,12.659 10.84,15.405 C 10.778,-32.709 9.575,-10.661 0,0"
             style="fill:#414042;fill-opacity:1;fill-rule:nonzero;stroke:none"
             id="path516" />
        </g>
        <g
           id="g518"
           transform="translate(183.5664,260.4736)">
          <path
             inkscape:connector-curvature="0"
             d="M 0,0 -10.939,0.008 -21.88,0 c -11.827,0 -21.413,-9.587 -21.413,-21.414 l 0,-12.313 32.354,0 32.353,0 0,12.313 C 21.414,-9.587 11.827,0 0,0"
             style="fill:#414042;fill-opacity:1;fill-rule:nonzero;stroke:none"
             id="path520" />
        </g>
        <g
           id="g522"
           transform="translate(205.2017,228.3447)">
          <path
             inkscape:connector-curvature="0"
             d="M 0,0 -32.575,0 -65.15,0 c -8.705,0 -15.763,-7.058 -15.763,-15.765 l 0,-52.675 c 0,-8.706 7.058,-15.764 15.763,-15.764 l 32.575,0 32.575,0 c 8.706,0 15.763,7.058 15.763,15.764 l 0,52.675 C 15.763,-7.058 8.706,0 0,0"
             style="fill:#414042;fill-opacity:1;fill-rule:nonzero;stroke:none"
             id="path524" />
        </g>
        <g
           id="g526"
           transform="translate(190.6362,212.4375)">
          <path
             inkscape:connector-curvature="0"
             d="m 0,0 -18.009,0 -18.01,0 c -5.416,0 -9.808,-4.391 -9.808,-9.809 l 0,-32.773 c 0,-5.417 4.392,-9.809 9.808,-9.809 l 18.01,0 18.009,0 c 5.417,0 9.808,4.392 9.808,9.809 l 0,32.773 C 9.808,-4.391 5.417,0 0,0"
             style="fill:#ffffff;fill-opacity:1;fill-rule:nonzero;stroke:none"
             id="path528" />
        </g>
      </g>
    </g>
  </g>
</svg>
